<svg width="40" height="40" viewBox="0 0 40 40" fill="none" xmlns="http://www.w3.org/2000/svg">
<path d="M40 15.8822C40 16.1308 39.901 16.3693 39.7247 16.5451C39.5484 16.721 39.3093 16.8197 39.06 16.8197C38.8107 16.8197 38.5716 16.721 38.3953 16.5451C38.219 16.3693 38.12 16.1308 38.12 15.8822C38.12 8.15868 31.82 1.87513 24.0763 1.87513C23.827 1.87513 23.5879 1.77635 23.4116 1.60052C23.2353 1.42469 23.1363 1.18622 23.1363 0.937564C23.1363 0.688907 23.2353 0.450434 23.4116 0.274606C23.5879 0.0987788 23.827 0 24.0763 0C32.8566 0 40 7.12471 40 15.8822ZM24.0763 6.83461C26.4812 6.83734 28.7869 7.79143 30.4875 9.48757C32.1881 11.1837 33.1447 13.4834 33.1474 15.8821C33.1474 16.1308 33.2464 16.3692 33.4227 16.5451C33.599 16.7209 33.8381 16.8197 34.0874 16.8197C34.3367 16.8197 34.5758 16.7209 34.7521 16.5451C34.9284 16.3692 35.0274 16.1308 35.0274 15.8821C35.0274 9.85935 30.1147 4.95948 24.0763 4.95948C23.827 4.95948 23.5879 5.05826 23.4116 5.23409C23.2353 5.40991 23.1363 5.64839 23.1363 5.89704C23.1363 6.1457 23.2353 6.38417 23.4116 6.56C23.5879 6.73583 23.827 6.83461 24.0763 6.83461ZM24.0763 11.7941C25.163 11.7952 26.205 12.2262 26.9735 12.9926C27.742 13.7591 28.1743 14.7982 28.1756 15.8822C28.1756 16.0053 28.1999 16.1272 28.2471 16.241C28.2944 16.3547 28.3636 16.4581 28.4509 16.5451C28.5382 16.6322 28.6418 16.7013 28.7559 16.7484C28.8699 16.7955 28.9922 16.8197 29.1156 16.8197C29.239 16.8197 29.3613 16.7955 29.4753 16.7484C29.5894 16.7013 29.693 16.6322 29.7803 16.5451C29.8676 16.4581 29.9368 16.3547 29.9841 16.241C30.0313 16.1272 30.0556 16.0053 30.0556 15.8822C30.0538 14.3012 29.4233 12.7854 28.3024 11.6675C27.1815 10.5496 25.6618 9.92074 24.0767 9.91896C23.8274 9.91896 23.5883 10.0177 23.412 10.1936C23.2357 10.3694 23.1367 10.6079 23.1367 10.8565C23.1367 11.1052 23.2357 11.3437 23.412 11.5195C23.5883 11.6953 23.8274 11.7941 24.0767 11.7941H24.0763ZM38.1565 30.8119C38.3 31.8096 37.9631 32.8924 37.2551 33.7082L33.2499 38.3236C32.5396 39.1422 31.2763 40 29.1033 40C28.4625 39.9957 27.8235 39.9308 27.195 39.806C23.0126 39.0045 17.1981 35.6555 11.6409 30.8476C6.08891 26.044 1.94095 20.7792 0.545269 16.7643C-0.579534 13.5291 0.245719 11.627 1.13599 10.6011L5.14114 5.98564C5.84028 5.18004 6.89434 4.67946 7.89185 4.67946C8.68178 4.67946 9.38248 4.98581 9.8651 5.54202L15.4235 11.9474C16.5959 13.2984 16.6097 15.1697 15.4571 16.498L13.4544 18.806C13.3459 18.931 13.2056 19.1497 13.2397 19.6014C13.3396 20.9218 14.8226 23.0145 16.9301 24.8094C19.5856 27.0715 22.4024 28.1556 23.2089 27.2266L25.2117 24.9187C26.3677 23.5864 28.2275 23.3321 29.7341 24.3004L37.0201 28.9831C37.6406 29.3819 38.0443 30.0314 38.1565 30.8119ZM36.2956 31.0781C36.2609 30.8369 36.1624 30.6623 36.0017 30.5592L28.7161 25.8768C28.1251 25.497 27.252 25.433 26.6334 26.1459L24.6307 28.4539C23.9915 29.1904 22.7272 29.8922 20.3302 29.0525C18.8912 28.5484 17.2503 27.5479 15.7095 26.2355C14.7433 25.4128 11.5748 22.5128 11.3652 19.7429C11.3017 18.9039 11.5327 18.1558 12.033 17.5792L14.0359 15.2713C14.6526 14.5603 14.4634 13.7062 14.0023 13.1749L8.44364 6.76906C8.32011 6.6267 8.13453 6.55459 7.89185 6.55459C7.4314 6.55459 6.90962 6.81289 6.5626 7.21276L2.55744 11.8282C1.73391 12.7774 1.65448 14.2314 2.32158 16.1501C3.61409 19.8683 7.55862 24.8332 12.8732 29.4312C18.1914 34.0325 23.6781 37.2225 27.5501 37.9646C29.5554 38.3489 30.9954 38.0568 31.8287 37.0965L35.8339 32.481C36.1794 32.0824 36.3608 31.5318 36.2956 31.0781Z" fill="#2C3183"/>
</svg>
