<svg width="52" height="52" viewBox="0 0 52 52" fill="none" xmlns="http://www.w3.org/2000/svg">
<path d="M48.2227 3.01207V17.8008C48.2227 18.912 47.3219 19.8129 46.2106 19.8129H38.1623C37.051 19.8129 36.1502 18.9121 36.1502 17.8008V15.6018C36.1502 15.3427 35.9636 15.1211 35.7081 15.0771L32.2068 14.4738C31.9823 14.4351 31.9317 14.1354 32.1311 14.0252L35.8754 11.9541C36.045 11.8604 36.1502 11.6819 36.1502 11.4882V3.01207C36.1502 1.90091 37.051 1 38.1623 1H46.2106C47.3219 1 48.2227 1.9008 48.2227 3.01207Z" stroke="#2C3183" stroke-width="2" stroke-miterlimit="10" stroke-linecap="round" stroke-linejoin="round"/>
<path d="M39.0604 5.20239H42.4964" stroke="#2C3183" stroke-width="2" stroke-miterlimit="10" stroke-linecap="round" stroke-linejoin="round"/>
<path d="M39.0605 7.98853H45.2048" stroke="#2C3183" stroke-width="2" stroke-miterlimit="10" stroke-linecap="round" stroke-linejoin="round"/>
<path d="M39.0605 10.4028H45.2048" stroke="#2C3183" stroke-width="2" stroke-miterlimit="10" stroke-linecap="round" stroke-linejoin="round"/>
<path d="M40.5966 15.325H43.6687" stroke="#2C3183" stroke-width="2" stroke-miterlimit="10" stroke-linecap="round" stroke-linejoin="round"/>
<path d="M7.30596 33.585L5.40969 32.5989C3.93544 31.8322 2.11522 32.4025 1.34399 33.8723C0.572864 35.3422 1.14278 37.1553 2.61693 37.922L13.2679 43.4609" stroke="#2C3183" stroke-width="2" stroke-miterlimit="10" stroke-linecap="round" stroke-linejoin="round"/>
<path d="M19.2168 34.0107C18.8806 35.2726 19.5011 36.6272 20.737 37.1801L27.3708 40.1472" stroke="#2C3183" stroke-width="2" stroke-miterlimit="10" stroke-linecap="round" stroke-linejoin="round"/>
<path d="M43.9229 43.7195C43.295 39.6665 39.7691 37.3193 35.1281 37.6767C30.0001 38.0715 22.5698 43.1043 22.5698 43.1043L10.731 33.8452C9.42208 32.8215 7.52761 33.048 6.49924 34.351C5.47097 35.654 5.69843 37.5404 7.00729 38.564L22.088 50.3589C22.6223 50.7767 23.2788 50.9999 23.9497 50.9999C24.096 50.9999 24.2432 50.9893 24.3898 50.9678L41.4809 48.4571H46.7321V36.6164L41.7144 36.6163C38.5508 31.0891 32.5508 33.7239 30.8206 34.7435C30.2171 35.099 29.4806 35.1494 28.8417 34.8622L24.2844 32.813" stroke="#2C3183" stroke-width="2" stroke-miterlimit="10" stroke-linecap="round" stroke-linejoin="round"/>
<path d="M51.0002 47.3512V50.1096C51.0002 50.3318 50.82 50.512 50.5978 50.512H47.1347C46.9125 50.512 46.7323 50.3318 46.7323 50.1096V36.6165H50.5978C50.82 36.6165 51.0002 36.7966 51.0002 37.0189V43.8017" stroke="#2C3183" stroke-width="2" stroke-miterlimit="10" stroke-linecap="round" stroke-linejoin="round"/>
<path d="M15.2926 13.0154C16.7768 10.7726 18.2199 8.87661 19.0227 7.85508C19.3536 7.43405 19.99 7.43405 20.3209 7.85508C22.4433 10.5559 29.0418 19.369 29.0418 24.5453C29.0418 29.7104 24.8467 33.8974 19.6718 33.8974C14.4968 33.8974 10.3018 29.7103 10.3018 24.5453C10.3018 22.1545 11.7094 18.9879 13.4335 16.006" stroke="#2C3183" stroke-width="2" stroke-miterlimit="10" stroke-linecap="round" stroke-linejoin="round"/>
<path d="M24.1989 23.5474V25.9572C24.1989 26.1791 24.0187 26.3588 23.7964 26.3588H21.6838C21.4615 26.3588 21.2814 26.5386 21.2814 26.7604V28.8691C21.2814 29.0909 21.1012 29.2707 20.8789 29.2707H18.4645C18.2422 29.2707 18.062 29.0909 18.062 28.8691V26.7604C18.062 26.5386 17.8819 26.3588 17.6596 26.3588H15.5469C15.3247 26.3588 15.1445 26.1791 15.1445 25.9572V23.5474C15.1445 23.3255 15.3247 23.1458 15.5469 23.1458H17.6596C17.8819 23.1458 18.062 22.966 18.062 22.7441V20.6355C18.062 20.4137 18.2422 20.2339 18.4645 20.2339H20.8789C21.1012 20.2339 21.2814 20.4137 21.2814 20.6355V22.7441C21.2814 22.966 21.4615 23.1458 21.6838 23.1458H23.7964C24.0187 23.1457 24.1989 23.3255 24.1989 23.5474Z" stroke="#2C3183" stroke-width="2" stroke-miterlimit="10" stroke-linecap="round" stroke-linejoin="round"/>
</svg>
