<svg width="52" height="52" viewBox="0 0 52 52" fill="none" xmlns="http://www.w3.org/2000/svg">
<path d="M13.069 16.5173L9.62068 19.9656L7.89655 18.2415" stroke="#2C3183" stroke-width="2" stroke-miterlimit="10" stroke-linecap="round" stroke-linejoin="round"/>
<path d="M13.069 25.1379L9.62068 28.5862L7.89655 26.8621" stroke="#2C3183" stroke-width="2" stroke-miterlimit="10" stroke-linecap="round" stroke-linejoin="round"/>
<path d="M40.6552 25.1379V6.17238C40.6552 5.2241 39.8793 4.44824 38.931 4.44824H28.5862" stroke="#2C3183" stroke-width="2" stroke-miterlimit="10" stroke-linecap="round" stroke-linejoin="round"/>
<path d="M13.069 4.44824H2.72414C1.77586 4.44824 1 5.2241 1 6.17238V49.2758C1 50.2241 1.77586 51 2.72414 51H33.7586" stroke="#2C3183" stroke-width="2" stroke-miterlimit="10" stroke-linecap="round" stroke-linejoin="round"/>
<path d="M37.2069 25.1379V7.89648H32.0345" stroke="#2C3183" stroke-width="2" stroke-miterlimit="10" stroke-linecap="round" stroke-linejoin="round"/>
<path d="M18.4138 47.5518H18.2414" stroke="#2C3183" stroke-width="2" stroke-miterlimit="10" stroke-linecap="round" stroke-linejoin="round"/>
<path d="M9.62069 7.89648H4.44827V47.5517H14.7931" stroke="#2C3183" stroke-width="2" stroke-miterlimit="10" stroke-linecap="round" stroke-linejoin="round"/>
<path d="M14.7931 2.72412C13.8414 2.72412 13.069 3.49481 13.069 4.44826V9.62067H28.5862V4.44826C28.5862 3.49481 27.8138 2.72412 26.8621 2.72412" stroke="#2C3183" stroke-width="2" stroke-miterlimit="10" stroke-linecap="round" stroke-linejoin="round"/>
<path d="M23.4138 2.72414C23.4138 1.77069 22.6414 1 21.6897 1H19.9655C19.581 1 19.2276 1.12414 18.9414 1.33621C18.5173 1.65 18.2414 2.15517 18.2414 2.72414" stroke="#2C3183" stroke-width="2" stroke-miterlimit="10" stroke-linecap="round" stroke-linejoin="round"/>
<path d="M42.057 37.719C42.2242 38.3828 42.3104 39.0777 42.3104 39.7932C42.3104 44.5139 38.4794 48.3449 33.7587 48.3449C29.038 48.3449 25.207 44.5139 25.207 39.7932C25.207 35.0725 29.038 31.2415 33.7587 31.2415C34.9846 31.2415 36.1501 31.4983 37.2035 31.9639" stroke="#2C3183" stroke-width="2" stroke-miterlimit="10" stroke-linecap="round" stroke-linejoin="round"/>
<path d="M50.864 39.7931C50.864 39.7931 44.3019 51 33.7588 51C23.2157 51 16.6536 39.7931 16.6536 39.7931C16.6536 39.7931 23.1416 28.5862 33.7588 28.5862C44.376 28.5862 50.864 39.7931 50.864 39.7931Z" stroke="#2C3183" stroke-width="2" stroke-miterlimit="10" stroke-linecap="round" stroke-linejoin="round"/>
<path d="M39.7931 34.6206L33.7586 40.6551L31.1724 38.0689" stroke="#2C3183" stroke-width="2" stroke-miterlimit="10" stroke-linecap="round" stroke-linejoin="round"/>
<path d="M14.7931 2.72412C13.8414 2.72412 13.069 3.49481 13.069 4.44826V9.62067H28.5862V4.44826C28.5862 3.49481 27.8138 2.72412 26.8621 2.72412" stroke="#2C3183" stroke-width="2" stroke-miterlimit="10" stroke-linecap="round" stroke-linejoin="round"/>
<path d="M26.8621 25.1379H32.0345" stroke="#2C3183" stroke-width="2" stroke-miterlimit="10" stroke-linecap="round" stroke-linejoin="round"/>
<path d="M16.5172 25.1379H23.4138" stroke="#2C3183" stroke-width="2" stroke-miterlimit="10" stroke-linecap="round" stroke-linejoin="round"/>
<path d="M16.5172 28.5862H21.6897" stroke="#2C3183" stroke-width="2" stroke-miterlimit="10" stroke-linecap="round" stroke-linejoin="round"/>
<path d="M16.5172 19.9656H25.1379" stroke="#2C3183" stroke-width="2" stroke-miterlimit="10" stroke-linecap="round" stroke-linejoin="round"/>
<path d="M16.5172 16.5173H32.0345" stroke="#2C3183" stroke-width="2" stroke-miterlimit="10" stroke-linecap="round" stroke-linejoin="round"/>
</svg>
